Coordinates
version=1
nRows=10
nColumns=34
inDegrees=yes

Units are S.I. units (second, meters, Newtons, ...)
If the header above contains a line with 'inDegrees', this indicates whether rotational values are in degrees (yes) or radians (no).

endheader
time	pelvis_tilt	pelvis_list	pelvis_rotation	pelvis_tx	pelvis_ty	pelvis_tz	hip_flexion_r	hip_adduction_r	hip_rotation_r	knee_angle_r	ankle_angle_r	subtalar_angle_r	mtp_angle_r	hip_flexion_l	hip_adduction_l	hip_rotation_l	knee_angle_l	ankle_angle_l	subtalar_angle_l	mtp_angle_l	lumbar_extension	lumbar_bending	lumbar_rotation	arm_flex_r	arm_add_r	arm_rot_r	elbow_flex_r	pro_sup_r	arm_flex_l	arm_add_l	arm_rot_l	elbow_flex_l	pro_sup_l
      5.41666670	     -4.41427559	      0.64097621	     -0.12649595	     -0.62084276	      0.74201045	     -0.16456905	     51.18886171	    -10.02665034	     -7.02094238	     84.76905617	     39.08999291	     -2.28355320	      0.00000000	     50.99394558	    -11.13772866	     -7.91214375	     84.72829456	     37.48366213	      3.74951151	      0.00000000	    -52.53682243	     -0.10720251	      4.03811547	     22.73735865	    -12.09369143	    -13.53663653	     33.46269757	     95.96850144	     21.95729404	    -13.38125986	      5.70007997	     36.06719372	     99.09305926
      5.43333330	     -4.41679711	      0.58905560	     -0.15836701	     -0.62265644	      0.74821276	     -0.16550856	     50.47377716	     -9.84230603	     -7.19504087	     83.38787983	     38.41676927	     -2.51784907	      0.00000000	     50.56169000	    -11.02925470	     -7.98259298	     83.65314888	     36.75116310	      3.49142803	      0.00000000	    -51.90200164	     -0.05342596	      4.06572418	     22.22651193	    -11.93458450	    -13.55156583	     33.96520466	     96.07630244	     21.60244762	    -13.24289408	      5.45823381	     36.38568155	     99.07498489
      5.45000000	     -4.54987578	      0.55349748	     -0.20776267	     -0.62190464	      0.75618375	     -0.16527063	     49.62647846	     -9.50632497	     -7.29114151	     81.45815117	     37.92667526	     -2.22691024	      0.00000000	     49.76099430	    -10.96876042	     -8.21377094	     81.95697828	     36.03753320	      3.55328642	      0.00000000	    -51.04689620	     -0.07918288	      4.06479456	     21.68741140	    -11.73848068	    -13.51784883	     34.10293740	     96.14067937	     21.24784559	    -13.19576933	      5.38750071	     36.47864873	     99.08696784
      5.46666670	     -4.43659648	      0.51687140	     -0.26489407	     -0.62120598	      0.76628078	     -0.16523037	     48.46305080	     -9.28739291	     -7.51283055	     79.36636279	     37.15906445	     -2.17142346	      0.00000000	     48.61338522	    -10.77594628	     -8.40025073	     79.99077329	     35.62529880	      3.70531051	      0.00000000	    -50.49450928	     -0.09501191	      3.99923236	     21.15173714	    -11.50933137	    -13.44015110	     34.42642525	     96.28106362	     20.94446547	    -13.07953436	      5.28668649	     36.71815899	     99.13771430
      5.48333330	     -4.44996365	      0.48154561	     -0.38530632	     -0.61832871	      0.77457946	     -0.16479384	     47.18973501	     -8.95815032	     -7.62161088	     77.23434092	     36.19169248	     -2.31214050	      0.00000000	     47.28752596	    -10.75402614	     -8.77776606	     77.96264501	     34.70364103	      3.59450414	      0.00000000	    -49.63350585	     -0.13060211	      3.93583042	     20.48235754	    -11.28223549	    -13.35782717	     34.52662068	     96.43452289	     20.37423225	    -13.03148359	      5.23642037	     36.74865001	     99.21149790
      5.50000000	     -4.69735893	      0.52955190	     -0.52686359	     -0.61662156	      0.78036216	     -0.16496309	     46.17066960	     -8.79863447	     -7.74739192	     75.15379587	     35.27014224	     -2.24592002	      0.00000000	     46.15160587	    -10.68379544	     -9.29155596	     75.86941325	     33.81285154	      3.65014243	      0.00000000	    -48.29533782	     -0.17721778	      3.80791345	     19.80060567	    -11.04517463	    -13.28366220	     34.48916315	     96.51165155	     19.75244038	    -13.05797357	      5.26242928	     36.63104436	     99.25629855
      5.51666670	     -4.60773159	      0.56684780	     -0.72380129	     -0.61334402	      0.79290993	     -0.16374525	     44.42786650	     -8.40934941	     -7.76703574	     72.34481061	     34.38294737	     -2.13224668	      0.00000000	     44.38132916	    -10.53370843	     -9.73111243	     73.29509507	     32.90969040	      3.28300962	      0.00000000	    -47.26996208	     -0.37299859	      3.64210945	     19.15047685	    -10.69037719	    -13.10405256	     34.40684578	     96.67554180	     19.11058329	    -13.08123362	      5.27615262	     36.42881339	     99.34210893
      5.53333330	     -4.55671190	      0.52996784	     -0.89306234	     -0.61089488	      0.80294576	     -0.16356010	     42.71137891	     -8.03707065	     -7.94839177	     69.65390588	     33.57003721	     -1.73859332	      0.00000000	     42.48410814	    -10.39495915	    -10.04462340	     70.58093202	     32.09595040	      3.26970863	      0.00000000	    -46.04482217	     -0.46973558	      3.57725511	     18.43674546	    -10.41814727	    -12.83957065	     34.16318996	     96.85599357	     18.31935476	    -13.04889593	      5.29455614	     36.10602540	     99.42295163
      5.55000000	     -4.70277968	      0.64248728	     -0.89741048	     -0.60995052	      0.81115095	     -0.16483948	     41.36618688	     -7.91975498	     -8.05595798	     67.25739282	     32.53858205	     -1.91157241	      0.00000000	     41.02428004	    -10.04387812	    -10.55870569	     67.93206276	     31.03996708	      3.10918206	      0.00000000	    -44.51388037	     -0.57615326	      3.36489646	     17.70130557	    -10.19741433	    -12.50512411	     33.85694580	     97.03236967	     17.61507560	    -13.05016041	      5.36189868	     35.80570202	     99.50335295
      5.56666670	     -4.95059722	      0.61554378	     -0.91598186	     -0.60044231	      0.81480038	     -0.16527505	     39.85354612	     -7.83494723	     -8.34714259	     64.89256689	     31.72060090	     -1.80682109	      0.00000000	     39.87935818	     -9.92601425	    -10.90027584	     66.03940082	     30.20136037	      3.16158350	      0.00000000	    -42.40351099	     -0.48259038	      3.20725559	     16.60831128	    -10.00180533	    -12.31272541	     33.45142092	     97.12568145	     16.36146527	    -12.95449065	      5.44471708	     35.34374043	     99.54146496
